<svg xmlns="http://www.w3.org/2000/svg" width="800" height="200">
  <rect width="800" height="200" rx="6" ry="6" fill="#0d1117" stroke="#00FF41" stroke-width="1"/>
  <text x="400" y="40" text-anchor="middle" fill="#00FF41" font-family="monospace,Consolas,monospace" font-size="15" font-weight="bold">Contribution Activity Graph</text>
  <!-- Placeholder activity dots grid -->
  <g fill="#00FF41" opacity="0.15">
    <rect x="40"  y="70" width="10" height="100" rx="2"/>
    <rect x="60"  y="100" width="10" height="70"  rx="2"/>
    <rect x="80"  y="80"  width="10" height="90"  rx="2"/>
    <rect x="100" y="110" width="10" height="60"  rx="2"/>
    <rect x="120" y="90"  width="10" height="80"  rx="2"/>
    <rect x="140" y="120" width="10" height="50"  rx="2"/>
    <rect x="160" y="75"  width="10" height="95"  rx="2"/>
    <rect x="180" y="105" width="10" height="65"  rx="2"/>
    <rect x="200" y="85"  width="10" height="85"  rx="2"/>
    <rect x="220" y="115" width="10" height="55"  rx="2"/>
    <rect x="240" y="95"  width="10" height="75"  rx="2"/>
    <rect x="260" y="70"  width="10" height="100" rx="2"/>
    <rect x="280" y="100" width="10" height="70"  rx="2"/>
    <rect x="300" y="80"  width="10" height="90"  rx="2"/>
    <rect x="320" y="110" width="10" height="60"  rx="2"/>
    <rect x="340" y="90"  width="10" height="80"  rx="2"/>
    <rect x="360" y="120" width="10" height="50"  rx="2"/>
    <rect x="380" y="75"  width="10" height="95"  rx="2"/>
    <rect x="400" y="105" width="10" height="65"  rx="2"/>
    <rect x="420" y="85"  width="10" height="85"  rx="2"/>
    <rect x="440" y="115" width="10" height="55"  rx="2"/>
    <rect x="460" y="95"  width="10" height="75"  rx="2"/>
    <rect x="480" y="70"  width="10" height="100" rx="2"/>
    <rect x="500" y="100" width="10" height="70"  rx="2"/>
    <rect x="520" y="80"  width="10" height="90"  rx="2"/>
    <rect x="540" y="110" width="10" height="60"  rx="2"/>
    <rect x="560" y="90"  width="10" height="80"  rx="2"/>
    <rect x="580" y="120" width="10" height="50"  rx="2"/>
    <rect x="600" y="75"  width="10" height="95"  rx="2"/>
    <rect x="620" y="105" width="10" height="65"  rx="2"/>
    <rect x="640" y="85"  width="10" height="85"  rx="2"/>
    <rect x="660" y="115" width="10" height="55"  rx="2"/>
    <rect x="680" y="95"  width="10" height="75"  rx="2"/>
    <rect x="700" y="70"  width="10" height="100" rx="2"/>
    <rect x="720" y="100" width="10" height="70"  rx="2"/>
    <rect x="740" y="80"  width="10" height="90"  rx="2"/>
  </g>
  <text x="400" y="188" text-anchor="middle" fill="#00FF41" font-family="monospace,Consolas,monospace" font-size="9" opacity="0.6">[ refreshing via GitHub Actions ]</text>
</svg>
